<svg version="1.1" id="Layer_1" xmlns:x="ns_extend;" xmlns:i="ns_ai;" xmlns:graph="ns_graphs;" xmlns="http://www.w3.org/2000/svg" xmlns:xlink="http://www.w3.org/1999/xlink" x="0px" y="0px" viewBox="0 0 279 90" style="enable-background:new 0 0 279 90;" xml:space="preserve">
 <style type="text/css">
  .st0{fill:#FFFFFF;}
	.st1{fill:#E60012;}
 </style>
 <metadata>
  <sfw xmlns="ns_sfw;">
   <slices>
   </slices>
   <sliceSourceBounds bottomLeftOrigin="true" height="90" width="279" x="-93" y="-30">
   </sliceSourceBounds>
  </sfw>
 </metadata>
 <rect x="14.7" y="10.1" class="st0" width="249.7" height="69.9">
 </rect>
 <g id="Symbols">
  <g id="Artboard" transform="translate(-199.000000, -173.000000)">
   <g id="LenovoLogo-POS-1Color-Copy" transform="translate(199.000000, 173.000000)">
    <path id="logo-red" class="st1" d="M0,90V0h279v90H0z M58.2,56.4H36V18.9H25.8v46.5h32.4C58.2,65.4,58.2,56.4,58.2,56.4z
				 M92.1,35.1c-3.3-3.9-8.1-6-14.1-6c-10.8,0-18.9,8.1-18.9,18.6c0,10.8,8.1,18.6,20.1,18.6c6.6,0,13.5-3.3,16.5-6.9l-6.3-4.8
				c-4.2,3-6.6,3.9-10.2,3.9c-3.3,0-6-1.2-7.8-3L96.6,45C96,41.1,94.5,37.5,92.1,35.1L92.1,35.1z M136.2,43.2
				c0-8.1-6-14.1-14.4-14.1c-4.2,0-8.7,1.8-11.7,5.7v-5.1h-9.9v35.7h9.9V45c0-3.6,2.7-7.5,8.1-7.5c4.2,0,8.4,2.7,8.4,7.5v20.4h9.9
				V43.2H136.2z M159.3,29.1c-10.8,0-19.2,8.1-19.2,18.6s8.4,18.6,19.2,18.6s19.2-8.1,19.2-18.6S170.1,29.1,159.3,29.1z M205.8,29.7
				l-9,24.3l-9-24.3H177l14.7,35.7h10.8l14.7-35.7H205.8L205.8,29.7z M234.9,29.1c-10.8,0-19.2,8.1-19.2,18.6s8.4,18.6,19.2,18.6
				s19.2-8.1,19.2-18.6C254.1,37.2,245.7,29.1,234.9,29.1L234.9,29.1z M234.9,57.6c-5.4,0-9.6-4.5-9.6-10.2c0-6,3.9-10.2,9.6-10.2
				c5.4,0,9.6,4.5,9.6,10.2C244.5,53.4,240.3,57.6,234.9,57.6z M159.3,57.6c-5.4,0-9.6-4.5-9.6-10.2c0-6,3.9-10.2,9.6-10.2
				c5.4,0,9.6,4.5,9.6,10.2C168.9,53.4,164.7,57.6,159.3,57.6z M70.8,40.5c1.8-2.1,4.2-3.6,7.5-3.6c3.6,0,6.3,2.1,7.5,5.1l-17.1,7.2
				C68.1,45.3,69.3,42.6,70.8,40.5L70.8,40.5z">
    </path>
   </g>
  </g>
 </g>
</svg>